<?xml version="1.0" encoding="UTF-8" standalone="no"?>
<!-- Created with Inkscape (http://www.inkscape.org/) -->

<svg
   width="49.013546mm"
   height="49.013546mm"
   viewBox="0 0 49.013546 49.013546"
   version="1.1"
   id="svg1"
   inkscape:version="1.4.3 (0d15f75042, 2025-12-25)"
   sodipodi:docname="ring.svg"
   inkscape:export-filename="ring.png"
   inkscape:export-xdpi="96"
   inkscape:export-ydpi="96"
   xmlns:inkscape="http://www.inkscape.org/namespaces/inkscape"
   xmlns:sodipodi="http://sodipodi.sourceforge.net/DTD/sodipodi-0.dtd"
   xmlns="http://www.w3.org/2000/svg"
   xmlns:svg="http://www.w3.org/2000/svg">
  <sodipodi:namedview
     id="namedview1"
     pagecolor="#ffffff"
     bordercolor="#000000"
     borderopacity="0.25"
     inkscape:showpageshadow="2"
     inkscape:pageopacity="0.0"
     inkscape:pagecheckerboard="0"
     inkscape:deskcolor="#d1d1d1"
     inkscape:document-units="mm"
     inkscape:zoom="0.66268859"
     inkscape:cx="141.84641"
     inkscape:cy="225.59616"
     inkscape:window-width="1256"
     inkscape:window-height="670"
     inkscape:window-x="0"
     inkscape:window-y="0"
     inkscape:window-maximized="1"
     inkscape:current-layer="layer1"
     inkscape:export-bgcolor="#ffffff06" />
  <defs
     id="defs1" />
  <g
     inkscape:label="Layer 1"
     inkscape:groupmode="layer"
     id="layer1"
     transform="translate(-39.094255,-4.0845052)">
    <path
       id="path1"
       style="fill:#ffffff;stroke-width:0.264583"
       d="M 63.601286,4.0845052 A 24.506876,24.506876 0 0 0 39.094255,28.591536 24.506876,24.506876 0 0 0 63.601286,53.098051 24.506876,24.506876 0 0 0 88.1078,28.591536 24.506876,24.506876 0 0 0 63.601286,4.0845052 Z m 0,2.7941447 A 21.712757,21.712757 0 0 1 85.314172,28.591536 21.712757,21.712757 0 0 1 63.601286,50.303906 21.712757,21.712757 0 0 1 41.888399,28.591536 21.712757,21.712757 0 0 1 63.601286,6.8786499 Z" />
  </g>
</svg>
